# Blender v2.79 (sub 0) OBJ File: 'hurakan tibidabo.blend'
# www.blender.org
mtllib Background_others.mtl
o Plane
v -3.853385 1.459831 0.000043
v 3.853379 1.459831 0.000043
v -3.853385 5.772978 0.000043
v 3.853379 5.772978 0.000043
v 4.357567 6.398187 0.000029
v -4.357542 6.398187 0.000029
v 3.978586 6.398185 0.000043
v -3.978592 6.398185 0.000043
v 5.639688 6.398187 0.000027
v -5.639666 6.398187 0.000027
v -3.978592 1.334624 0.000043
v 3.978586 1.334624 0.000043
v -3.978592 5.898185 0.000043
v 3.978586 5.898185 0.000043
v -3.853385 1.459831 -0.799957
v 3.853379 1.459831 -0.799957
v -3.853385 5.772978 -0.799957
v 3.853379 5.772978 -0.799957
v 4.357567 5.386806 0.000029
v 4.447621 5.898186 0.000028
v 4.357567 5.988186 0.000029
v 4.267567 5.898186 0.000032
v 4.369631 5.642496 0.000029
v 4.402594 5.829674 0.000029
v -4.447595 5.898186 0.000029
v -4.357542 5.386806 0.000029
v -4.267541 5.898186 0.000032
v -4.357542 5.988186 0.000029
v -4.402567 5.829674 0.000029
v -4.369606 5.642496 0.000029
v 5.549635 5.898186 0.000027
v 5.639688 5.386806 0.000027
v 5.639688 5.988186 0.000027
v 5.594662 5.829674 0.000027
v 5.627624 5.642496 0.000027
v -5.639666 5.386806 0.000027
v -5.549612 5.898186 0.000027
v -5.639666 5.988186 0.000027
v -5.627600 5.642496 0.000027
v -5.594638 5.829674 0.000027
v 4.449355 1.334624 0.000029
v 4.357567 1.423374 0.000029
v 4.403461 1.346514 0.000029
v 4.369864 1.378999 0.000029
v -4.357542 1.424583 0.000029
v -4.449329 1.334624 0.000029
v -4.369839 1.379604 0.000029
v -4.403435 1.346676 0.000029
v 5.639688 1.423374 0.000027
v 5.547901 1.334624 0.000027
v 5.627392 1.378999 0.000027
v 5.593795 1.346514 0.000027
v -5.547877 1.334624 0.000027
v -5.639666 1.424583 0.000027
v -5.593771 1.346676 0.000027
v -5.627368 1.379604 0.000027
v 4.619103 1.334624 0.710028
v 4.604770 1.423374 0.784471
v 4.613077 1.346514 0.752944
v 4.607831 1.378999 0.780192
v 4.585977 1.334624 0.682007
v 4.496757 1.423374 0.694825
v 4.542508 1.346514 0.694111
v 4.509851 1.378999 0.698802
v 4.602273 1.334624 0.705767
v 4.557337 1.423374 0.772460
v 4.580945 1.346514 0.744808
v 4.564498 1.378999 0.769220
v 4.593851 1.334624 0.698777
v 4.517802 1.423374 0.739648
v 4.556967 1.346514 0.724907
v 4.529131 1.378999 0.739867
v 5.411279 1.334624 0.682006
v 5.500499 1.423374 0.694823
v 5.454749 1.346514 0.694109
v 5.487405 1.378999 0.698801
v 5.378152 1.334624 0.710027
v 5.392487 1.423374 0.784469
v 5.384179 1.346514 0.752943
v 5.389425 1.378999 0.780191
v 5.403405 1.334624 0.698776
v 5.479455 1.423374 0.739646
v 5.440289 1.346514 0.724905
v 5.468125 1.378999 0.739865
v 5.394984 1.334624 0.705765
v 5.439919 1.423374 0.772459
v 5.416311 1.346514 0.744807
v 5.432758 1.378999 0.769219
v -4.585952 1.334624 0.682007
v -4.496689 1.424583 0.694613
v -4.542477 1.346676 0.694082
v -4.509804 1.379604 0.698696
v -4.619079 1.334624 0.710028
v -4.604702 1.424583 0.784258
v -4.613047 1.346676 0.752916
v -4.607785 1.379604 0.780086
v -4.593826 1.334624 0.698777
v -4.517735 1.424583 0.739436
v -4.556937 1.346676 0.724878
v -4.529085 1.379604 0.739760
v -4.602248 1.334624 0.705767
v -4.557270 1.424583 0.772248
v -4.580915 1.346676 0.744779
v -4.564452 1.379604 0.769113
v -5.378129 1.334624 0.710027
v -5.392506 1.424583 0.784257
v -5.384161 1.346676 0.752914
v -5.389424 1.379604 0.780085
v -5.411256 1.334624 0.682006
v -5.500519 1.424583 0.694611
v -5.454731 1.346676 0.694081
v -5.487404 1.379604 0.698695
v -5.394960 1.334624 0.705766
v -5.439939 1.424583 0.772247
v -5.416293 1.346676 0.744779
v -5.432756 1.379604 0.769112
v -5.403382 1.334624 0.698775
v -5.479474 1.424583 0.739434
v -5.440272 1.346676 0.724877
v -5.468123 1.379604 0.739759
vt 0.699605 0.439886
vt 0.750836 0.917354
vt 0.651441 0.851426
vt 0.632033 0.520069
vt 0.099521 0.505814
vt 0.118929 0.837171
vt 0.000126 0.439885
vt 0.051357 0.917353
vt 0.168581 0.000205
vt 0.834028 0.001864
vt 0.833924 0.043678
vt 0.168477 0.042020
vt 0.179358 0.426769
vt 0.822750 0.428373
vt 0.833779 0.439633
vt 0.168331 0.437975
vt 0.822897 0.054884
vt 0.179505 0.053280
vt 0.136887 0.000126
vt 0.144309 0.041959
vt 0.136802 0.034414
vt 0.865719 0.001943
vt 0.865634 0.036230
vt 0.858089 0.043738
vt 0.137455 0.086097
vt 0.112182 0.311564
vt 0.108165 0.310087
vt 0.135818 0.064297
vt 0.972518 0.085891
vt 0.999874 0.361199
vt 0.955760 0.311819
vt 0.035003 0.000412
vt 0.137222 0.001726
vt 0.129213 0.041696
vt 0.041051 0.040708
vt 0.034029 0.033027
vt 0.869331 0.049794
vt 0.894889 0.312668
vt 0.891058 0.313533
vt 0.866361 0.066275
vt 0.864718 0.002990
vt 0.968666 0.000127
vt 0.969613 0.033317
vt 0.962437 0.041051
vt 0.873277 0.043588
vt 0.000126 0.356114
vt 0.030555 0.084927
vt 0.044320 0.307734
vt 0.133066 0.047888
vt 0.104388 0.309188
vt 0.100897 0.308834
vt 0.864447 0.088152
vt 0.036855 0.046653
vt 0.033115 0.062647
vt 0.970190 0.063318
vt 0.966601 0.047098
vt 0.052005 0.305958
vt 0.048314 0.306534
vt 0.886986 0.314966
vt 0.055422 0.305909
vt 0.951729 0.310563
vt 0.947996 0.309934
vt 0.944532 0.309835
vt 0.898427 0.312346
vt 0.055289 0.314102
vt 0.099658 0.317254
vt 0.101134 0.317830
vt 0.101921 0.318580
vt 0.102768 0.319773
vt 0.145398 0.369306
vt 0.011444 0.363909
vt 0.052640 0.315646
vt 0.053469 0.314539
vt 0.054133 0.314175
vt 0.841172 0.364704
vt 0.947210 0.319754
vt 0.988272 0.369012
vt 0.852799 0.372874
vt 0.896432 0.323449
vt 0.897304 0.322251
vt 0.898108 0.321501
vt 0.899606 0.320933
vt 0.944561 0.318164
vt 0.945725 0.318252
vt 0.946389 0.318628
vt 0.053398 0.311296
vt 0.055430 0.311276
vt 0.052726 0.308734
vt 0.055456 0.308693
vt 0.051536 0.311952
vt 0.049876 0.309419
vt 0.049634 0.313512
vt 0.046926 0.310938
vt 0.104350 0.315603
vt 0.106304 0.317473
vt 0.106330 0.312997
vt 0.109343 0.314799
vt 0.102375 0.314627
vt 0.103379 0.311998
vt 0.100162 0.314248
vt 0.100531 0.311630
vt 0.948373 0.316050
vt 0.950270 0.317645
vt 0.950093 0.313500
vt 0.953055 0.315069
vt 0.946506 0.315366
vt 0.947221 0.312775
vt 0.944462 0.315323
vt 0.944464 0.312708
vt 0.896890 0.318244
vt 0.899135 0.317882
vt 0.895893 0.315555
vt 0.898777 0.315200
vt 0.894882 0.319208
vt 0.892899 0.316534
vt 0.892884 0.321073
vt 0.889834 0.318314
vt 0.149478 0.366927
vt 0.153383 0.364332
vt 0.156951 0.361423
vt 0.848710 0.370419
vt 0.844780 0.367728
vt 0.007446 0.361558
vt 0.003620 0.358991
vt 0.992344 0.366679
vt 0.996265 0.364108
vn 1.0000 0.0000 0.0000
vn 0.0000 0.0000 1.0000
vn 0.0000 -1.0000 0.0000
vn -1.0000 0.0000 0.0000
vn 0.0000 1.0000 0.0000
vn -0.9044 0.0427 0.4246
vn -0.9805 0.0000 0.1964
vn 0.6346 0.1118 0.7647
vn 0.9805 0.0000 0.1964
vn -0.2423 0.1593 0.9570
vn 0.9044 0.0427 0.4246
vn 0.2423 0.1593 0.9570
vn -0.6346 0.1118 0.7647
vn 0.0000 0.1727 0.9850
vn 0.0653 -0.9640 0.2579
vn 0.1868 -0.6489 0.7376
vn 0.2440 -0.1097 0.9636
vn 0.1678 -0.9649 0.2022
vn 0.4743 -0.6696 0.5715
vn 0.6307 -0.1573 0.7599
vn 0.2337 -0.9661 0.1097
vn 0.6493 -0.6968 0.3049
vn 0.8824 -0.2232 0.4143
vn -0.2337 -0.9661 0.1097
vn -0.6493 -0.6968 0.3048
vn -0.8824 -0.2232 0.4143
vn -0.1678 -0.9649 0.2022
vn -0.4743 -0.6696 0.5715
vn -0.6307 -0.1573 0.7599
vn -0.0653 -0.9640 0.2579
vn -0.1868 -0.6489 0.7376
vn -0.2440 -0.1097 0.9636
vn -0.2367 -0.9652 0.1111
vn -0.6537 -0.6917 0.3069
vn -0.8830 -0.2198 0.4146
vn -0.1700 -0.9639 0.2048
vn -0.4775 -0.6640 0.5754
vn -0.6311 -0.1537 0.7603
vn -0.0662 -0.9630 0.2613
vn -0.1880 -0.6428 0.7426
vn -0.2441 -0.1062 0.9639
vn 0.0662 -0.9630 0.2613
vn 0.1880 -0.6428 0.7426
vn 0.2441 -0.1062 0.9639
vn 0.1700 -0.9639 0.2048
vn 0.4775 -0.6640 0.5754
vn 0.6311 -0.1537 0.7603
vn 0.2367 -0.9652 0.1111
vn 0.6537 -0.6917 0.3069
vn 0.8830 -0.2198 0.4146
vn -0.2505 -0.9668 0.0502
vn -0.6885 -0.7120 0.1379
vn -0.9462 -0.2622 0.1896
vn 0.0000 -0.9637 0.2670
vn 0.0000 -0.6426 0.7662
vn 0.0000 -0.0960 0.9954
vn 0.2537 -0.9660 0.0508
vn 0.6932 -0.7073 0.1389
vn 0.9471 -0.2589 0.1897
vn -0.0000 -0.9627 0.2705
vn -0.0000 -0.6365 0.7713
vn -0.0000 -0.0924 0.9957
vn 0.2505 -0.9668 0.0502
vn 0.6885 -0.7120 0.1379
vn 0.9462 -0.2622 0.1896
vn -0.2537 -0.9660 0.0508
vn -0.6932 -0.7073 0.1389
vn -0.9471 -0.2589 0.1897
usemtl Material.007
s off
f 3/1/1 1/2/1 15/3/1 17/4/1
f 18/5/2 17/4/2 15/3/2 16/6/2
f 4/7/3 3/1/3 17/4/3 18/5/3
f 2/8/4 4/7/4 18/5/4 16/6/4
f 1/2/5 2/8/5 16/6/5 15/3/5
usemtl Material.009
f 7/9/2 8/10/2 13/11/2 14/12/2
f 2/13/2 1/14/2 11/15/2 12/16/2
f 3/17/2 4/18/2 14/12/2 13/11/2
f 4/18/2 2/13/2 12/16/2 14/12/2
f 1/14/2 3/17/2 13/11/2 11/15/2
f 5/19/2 7/9/2 14/12/2 22/20/2 21/21/2
f 8/10/2 6/22/2 28/23/2 27/24/2 13/11/2
usemtl Material.010
f 19/25/6 62/26/6 70/27/6 23/28/6
f 36/29/7 54/30/7 110/31/7
f 9/32/2 5/33/2 21/21/2 20/34/2 31/35/2 33/36/2
f 29/37/8 102/38/8 98/39/8 30/40/8
f 6/41/2 10/42/2 38/43/2 37/44/2 25/45/2 28/23/2
f 49/46/9 32/47/9 74/48/9
f 24/49/10 66/50/10 58/51/10 20/34/10
f 19/25/2 23/28/2 24/49/2 20/34/2 21/21/2 22/20/2
f 25/45/2 29/37/2 30/40/2 26/52/2 27/24/2 28/23/2
f 31/35/2 34/53/2 33/36/2
f 34/53/2 35/54/2 33/36/2
f 35/54/2 32/47/2 33/36/2
f 36/29/2 39/55/2 38/43/2
f 39/55/2 40/56/2 38/43/2
f 40/56/2 37/44/2 38/43/2
f 34/53/8 86/57/8 82/58/8 35/54/8
f 30/40/11 98/39/11 90/59/11 26/52/11
f 31/35/12 78/60/12 86/57/12 34/53/12
f 23/28/13 70/27/13 66/50/13 24/49/13
f 35/54/11 82/58/11 74/48/11 32/47/11
f 31/35/14 20/34/14 58/51/14 78/60/14
f 39/55/13 118/61/13 114/62/13 40/56/13
f 36/29/6 110/31/6 118/61/6 39/55/6
f 25/45/14 37/44/14 106/63/14 94/64/14
f 40/56/10 114/62/10 106/63/10 37/44/10
f 25/45/12 94/64/12 102/38/12 29/37/12
f 77/65/3 57/66/3 65/67/3 69/68/3 61/69/3 41/70/3 50/71/3 73/72/3 81/73/3 85/74/3
f 45/75/9 26/52/9 90/59/9
f 109/76/3 53/77/3 46/78/3 89/79/3 97/80/3 101/81/3 93/82/3 105/83/3 113/84/3 117/85/3
f 77/65/15 85/74/15 87/86/15 79/87/15
f 79/87/16 87/86/16 88/88/16 80/89/16
f 80/89/17 88/88/17 86/57/17 78/60/17
f 85/74/18 81/73/18 83/90/18 87/86/18
f 87/86/19 83/90/19 84/91/19 88/88/19
f 88/88/20 84/91/20 82/58/20 86/57/20
f 81/73/21 73/72/21 75/92/21 83/90/21
f 83/90/22 75/92/22 76/93/22 84/91/22
f 84/91/23 76/93/23 74/48/23 82/58/23
f 61/69/24 69/68/24 71/94/24 63/95/24
f 63/95/25 71/94/25 72/96/25 64/97/25
f 64/97/26 72/96/26 70/27/26 62/26/26
f 69/68/27 65/67/27 67/98/27 71/94/27
f 71/94/28 67/98/28 68/99/28 72/96/28
f 72/96/29 68/99/29 66/50/29 70/27/29
f 65/67/30 57/66/30 59/100/30 67/98/30
f 67/98/31 59/100/31 60/101/31 68/99/31
f 68/99/32 60/101/32 58/51/32 66/50/32
f 109/76/33 117/85/33 119/102/33 111/103/33
f 111/103/34 119/102/34 120/104/34 112/105/34
f 112/105/35 120/104/35 118/61/35 110/31/35
f 117/85/36 113/84/36 115/106/36 119/102/36
f 119/102/37 115/106/37 116/107/37 120/104/37
f 120/104/38 116/107/38 114/62/38 118/61/38
f 113/84/39 105/83/39 107/108/39 115/106/39
f 115/106/40 107/108/40 108/109/40 116/107/40
f 116/107/41 108/109/41 106/63/41 114/62/41
f 93/82/42 101/81/42 103/110/42 95/111/42
f 95/111/43 103/110/43 104/112/43 96/113/43
f 96/113/44 104/112/44 102/38/44 94/64/44
f 101/81/45 97/80/45 99/114/45 103/110/45
f 103/110/46 99/114/46 100/115/46 104/112/46
f 104/112/47 100/115/47 98/39/47 102/38/47
f 97/80/48 89/79/48 91/116/48 99/114/48
f 99/114/49 91/116/49 92/117/49 100/115/49
f 100/115/50 92/117/50 90/59/50 98/39/50
f 41/70/51 61/69/51 63/95/51 43/118/51
f 43/118/52 63/95/52 64/97/52 44/119/52
f 44/119/53 64/97/53 62/26/53 42/120/53
f 57/66/54 77/65/54 79/87/54 59/100/54
f 59/100/55 79/87/55 80/89/55 60/101/55
f 60/101/56 80/89/56 78/60/56 58/51/56
f 89/79/57 46/78/57 48/121/57 91/116/57
f 91/116/58 48/121/58 47/122/58 92/117/58
f 92/117/59 47/122/59 45/75/59 90/59/59
f 105/83/60 93/82/60 95/111/60 107/108/60
f 107/108/61 95/111/61 96/113/61 108/109/61
f 108/109/62 96/113/62 94/64/62 106/63/62
f 73/72/63 50/71/63 52/123/63 75/92/63
f 75/92/64 52/123/64 51/124/64 76/93/64
f 76/93/65 51/124/65 49/46/65 74/48/65
f 53/77/66 109/76/66 111/103/66 55/125/66
f 55/125/67 111/103/67 112/105/67 56/126/67
f 56/126/68 112/105/68 110/31/68 54/30/68
f 19/25/7 42/120/7 62/26/7
